<?xml version="1.0" encoding="utf-8" standalone="no"?>
<!DOCTYPE svg PUBLIC "-//W3C//DTD SVG 1.1//EN"
  "http://www.w3.org/Graphics/SVG/1.1/DTD/svg11.dtd">
<svg xmlns:xlink="http://www.w3.org/1999/xlink" width="504pt" height="288pt" viewBox="0 0 504 288" xmlns="http://www.w3.org/2000/svg" version="1.1">
 <metadata>
  <rdf:RDF xmlns:dc="http://purl.org/dc/elements/1.1/" xmlns:cc="http://creativecommons.org/ns#" xmlns:rdf="http://www.w3.org/1999/02/22-rdf-syntax-ns#">
   <cc:Work>
    <dc:type rdf:resource="http://purl.org/dc/dcmitype/StillImage"/>
    <dc:date>2026-06-12T12:24:35.483784</dc:date>
    <dc:format>image/svg+xml</dc:format>
    <dc:creator>
     <cc:Agent>
      <dc:title>Matplotlib v3.10.9, https://matplotlib.org/</dc:title>
     </cc:Agent>
    </dc:creator>
   </cc:Work>
  </rdf:RDF>
 </metadata>
 <defs>
  <style type="text/css">*{stroke-linejoin: round; stroke-linecap: butt}</style>
 </defs>
 <g id="figure_1">
  <g id="patch_1">
   <path d="M 0 288 
L 504 288 
L 504 0 
L 0 0 
z
" style="fill: #ffffff"/>
  </g>
  <g id="axes_1">
   <g id="patch_2">
    <path d="M 47.72 246.04 
L 493.2 246.04 
L 493.2 26.88 
L 47.72 26.88 
z
" style="fill: #ffffff"/>
   </g>
   <g id="matplotlib.axis_1">
    <g id="xtick_1">
     <g id="line2d_1">
      <path d="M 54.004201 246.04 
L 54.004201 26.88 
" clip-path="url(#p0b2e867d63)" style="fill: none; stroke: #e5e7eb; stroke-opacity: 0.8; stroke-width: 0.7; stroke-linecap: square"/>
     </g>
     <g id="line2d_2">
      <defs>
       <path id="m37598f24bb" d="M 0 0 
L 0 3.5 
" style="stroke: #374151; stroke-width: 0.8"/>
      </defs>
      <g>
       <use xlink:href="#m37598f24bb" x="54.004201" y="246.04" style="fill: #374151; stroke: #374151; stroke-width: 0.8"/>
      </g>
     </g>
     <g id="text_1">
      <text style="font-size: 10px; font-family: 'DejaVu Sans'; text-anchor: middle; fill: #374151" x="54.004201" y="260.638438" transform="rotate(-0 54.004201 260.638438)">0</text>
     </g>
    </g>
    <g id="xtick_2">
     <g id="line2d_3">
      <path d="M 123.828652 246.04 
L 123.828652 26.88 
" clip-path="url(#p0b2e867d63)" style="fill: none; stroke: #e5e7eb; stroke-opacity: 0.8; stroke-width: 0.7; stroke-linecap: square"/>
     </g>
     <g id="line2d_4">
      <g>
       <use xlink:href="#m37598f24bb" x="123.828652" y="246.04" style="fill: #374151; stroke: #374151; stroke-width: 0.8"/>
      </g>
     </g>
     <g id="text_2">
      <text style="font-size: 10px; font-family: 'DejaVu Sans'; text-anchor: middle; fill: #374151" x="123.828652" y="260.638438" transform="rotate(-0 123.828652 260.638438)">5</text>
     </g>
    </g>
    <g id="xtick_3">
     <g id="line2d_5">
      <path d="M 193.653103 246.04 
L 193.653103 26.88 
" clip-path="url(#p0b2e867d63)" style="fill: none; stroke: #e5e7eb; stroke-opacity: 0.8; stroke-width: 0.7; stroke-linecap: square"/>
     </g>
     <g id="line2d_6">
      <g>
       <use xlink:href="#m37598f24bb" x="193.653103" y="246.04" style="fill: #374151; stroke: #374151; stroke-width: 0.8"/>
      </g>
     </g>
     <g id="text_3">
      <text style="font-size: 10px; font-family: 'DejaVu Sans'; text-anchor: middle; fill: #374151" x="193.653103" y="260.638438" transform="rotate(-0 193.653103 260.638438)">10</text>
     </g>
    </g>
    <g id="xtick_4">
     <g id="line2d_7">
      <path d="M 263.477555 246.04 
L 263.477555 26.88 
" clip-path="url(#p0b2e867d63)" style="fill: none; stroke: #e5e7eb; stroke-opacity: 0.8; stroke-width: 0.7; stroke-linecap: square"/>
     </g>
     <g id="line2d_8">
      <g>
       <use xlink:href="#m37598f24bb" x="263.477555" y="246.04" style="fill: #374151; stroke: #374151; stroke-width: 0.8"/>
      </g>
     </g>
     <g id="text_4">
      <text style="font-size: 10px; font-family: 'DejaVu Sans'; text-anchor: middle; fill: #374151" x="263.477555" y="260.638438" transform="rotate(-0 263.477555 260.638438)">15</text>
     </g>
    </g>
    <g id="xtick_5">
     <g id="line2d_9">
      <path d="M 333.302006 246.04 
L 333.302006 26.88 
" clip-path="url(#p0b2e867d63)" style="fill: none; stroke: #e5e7eb; stroke-opacity: 0.8; stroke-width: 0.7; stroke-linecap: square"/>
     </g>
     <g id="line2d_10">
      <g>
       <use xlink:href="#m37598f24bb" x="333.302006" y="246.04" style="fill: #374151; stroke: #374151; stroke-width: 0.8"/>
      </g>
     </g>
     <g id="text_5">
      <text style="font-size: 10px; font-family: 'DejaVu Sans'; text-anchor: middle; fill: #374151" x="333.302006" y="260.638438" transform="rotate(-0 333.302006 260.638438)">20</text>
     </g>
    </g>
    <g id="xtick_6">
     <g id="line2d_11">
      <path d="M 403.126458 246.04 
L 403.126458 26.88 
" clip-path="url(#p0b2e867d63)" style="fill: none; stroke: #e5e7eb; stroke-opacity: 0.8; stroke-width: 0.7; stroke-linecap: square"/>
     </g>
     <g id="line2d_12">
      <g>
       <use xlink:href="#m37598f24bb" x="403.126458" y="246.04" style="fill: #374151; stroke: #374151; stroke-width: 0.8"/>
      </g>
     </g>
     <g id="text_6">
      <text style="font-size: 10px; font-family: 'DejaVu Sans'; text-anchor: middle; fill: #374151" x="403.126458" y="260.638438" transform="rotate(-0 403.126458 260.638438)">25</text>
     </g>
    </g>
    <g id="xtick_7">
     <g id="line2d_13">
      <path d="M 472.950909 246.04 
L 472.950909 26.88 
" clip-path="url(#p0b2e867d63)" style="fill: none; stroke: #e5e7eb; stroke-opacity: 0.8; stroke-width: 0.7; stroke-linecap: square"/>
     </g>
     <g id="line2d_14">
      <g>
       <use xlink:href="#m37598f24bb" x="472.950909" y="246.04" style="fill: #374151; stroke: #374151; stroke-width: 0.8"/>
      </g>
     </g>
     <g id="text_7">
      <text style="font-size: 10px; font-family: 'DejaVu Sans'; text-anchor: middle; fill: #374151" x="472.950909" y="260.638438" transform="rotate(-0 472.950909 260.638438)">30</text>
     </g>
    </g>
    <g id="text_8">
     <text style="font-size: 10px; font-family: 'DejaVu Sans'; text-anchor: middle; fill: #1f2937" x="270.46" y="274.316562" transform="rotate(-0 270.46 274.316562)">Round</text>
    </g>
   </g>
   <g id="matplotlib.axis_2">
    <g id="ytick_1">
     <g id="line2d_15">
      <path d="M 47.72 204.619809 
L 493.2 204.619809 
" clip-path="url(#p0b2e867d63)" style="fill: none; stroke: #e5e7eb; stroke-opacity: 0.8; stroke-width: 0.7; stroke-linecap: square"/>
     </g>
     <g id="line2d_16">
      <defs>
       <path id="m9523e84c63" d="M 0 0 
L -3.5 0 
" style="stroke: #374151; stroke-width: 0.8"/>
      </defs>
      <g>
       <use xlink:href="#m9523e84c63" x="47.72" y="204.619809" style="fill: #374151; stroke: #374151; stroke-width: 0.8"/>
      </g>
     </g>
     <g id="text_9">
      <text style="font-size: 10px; font-family: 'DejaVu Sans'; text-anchor: end; fill: #374151" x="40.72" y="208.419027" transform="rotate(-0 40.72 208.419027)">0.2</text>
     </g>
    </g>
    <g id="ytick_2">
     <g id="line2d_17">
      <path d="M 47.72 162.675311 
L 493.2 162.675311 
" clip-path="url(#p0b2e867d63)" style="fill: none; stroke: #e5e7eb; stroke-opacity: 0.8; stroke-width: 0.7; stroke-linecap: square"/>
     </g>
     <g id="line2d_18">
      <g>
       <use xlink:href="#m9523e84c63" x="47.72" y="162.675311" style="fill: #374151; stroke: #374151; stroke-width: 0.8"/>
      </g>
     </g>
     <g id="text_10">
      <text style="font-size: 10px; font-family: 'DejaVu Sans'; text-anchor: end; fill: #374151" x="40.72" y="166.47453" transform="rotate(-0 40.72 166.47453)">0.4</text>
     </g>
    </g>
    <g id="ytick_3">
     <g id="line2d_19">
      <path d="M 47.72 120.730813 
L 493.2 120.730813 
" clip-path="url(#p0b2e867d63)" style="fill: none; stroke: #e5e7eb; stroke-opacity: 0.8; stroke-width: 0.7; stroke-linecap: square"/>
     </g>
     <g id="line2d_20">
      <g>
       <use xlink:href="#m9523e84c63" x="47.72" y="120.730813" style="fill: #374151; stroke: #374151; stroke-width: 0.8"/>
      </g>
     </g>
     <g id="text_11">
      <text style="font-size: 10px; font-family: 'DejaVu Sans'; text-anchor: end; fill: #374151" x="40.72" y="124.530032" transform="rotate(-0 40.72 124.530032)">0.6</text>
     </g>
    </g>
    <g id="ytick_4">
     <g id="line2d_21">
      <path d="M 47.72 78.786316 
L 493.2 78.786316 
" clip-path="url(#p0b2e867d63)" style="fill: none; stroke: #e5e7eb; stroke-opacity: 0.8; stroke-width: 0.7; stroke-linecap: square"/>
     </g>
     <g id="line2d_22">
      <g>
       <use xlink:href="#m9523e84c63" x="47.72" y="78.786316" style="fill: #374151; stroke: #374151; stroke-width: 0.8"/>
      </g>
     </g>
     <g id="text_12">
      <text style="font-size: 10px; font-family: 'DejaVu Sans'; text-anchor: end; fill: #374151" x="40.72" y="82.585535" transform="rotate(-0 40.72 82.585535)">0.8</text>
     </g>
    </g>
    <g id="ytick_5">
     <g id="line2d_23">
      <path d="M 47.72 36.841818 
L 493.2 36.841818 
" clip-path="url(#p0b2e867d63)" style="fill: none; stroke: #e5e7eb; stroke-opacity: 0.8; stroke-width: 0.7; stroke-linecap: square"/>
     </g>
     <g id="line2d_24">
      <g>
       <use xlink:href="#m9523e84c63" x="47.72" y="36.841818" style="fill: #374151; stroke: #374151; stroke-width: 0.8"/>
      </g>
     </g>
     <g id="text_13">
      <text style="font-size: 10px; font-family: 'DejaVu Sans'; text-anchor: end; fill: #374151" x="40.72" y="40.641037" transform="rotate(-0 40.72 40.641037)">1.0</text>
     </g>
    </g>
    <g id="text_14">
     <text style="font-size: 10px; font-family: 'DejaVu Sans'; text-anchor: middle; fill: #1f2937" x="18.737188" y="136.46" transform="rotate(-90 18.737188 136.46)">Mean reputation</text>
    </g>
   </g>
   <g id="line2d_25">
    <path d="M 67.969091 36.841818 
L 81.933981 36.841818 
L 95.898871 36.841818 
L 109.863762 41.429498 
L 123.828652 43.570641 
L 137.793542 43.570641 
L 151.758433 48.039795 
L 165.723323 47.810411 
L 179.688213 51.17406 
L 193.653103 55.55472 
L 207.617994 57.123741 
L 221.582884 75.508283 
L 235.547774 74.745255 
L 249.512665 77.973173 
L 263.477555 77.098697 
L 277.442445 76.313576 
L 291.407335 78.832692 
L 305.372226 79.829911 
L 319.337116 78.595649 
L 333.302006 85.365115 
L 347.266897 84.642886 
L 361.231787 83.441228 
L 375.196677 84.028922 
L 389.161567 82.901056 
L 403.126458 84.370002 
L 417.091348 83.160463 
L 431.056238 81.856655 
L 445.021129 84.243149 
L 458.986019 83.390704 
L 472.950909 85.016506 
" clip-path="url(#p0b2e867d63)" style="fill: none; stroke: #4f6f8f; stroke-width: 1.8; stroke-linecap: square"/>
    <defs>
     <path id="m1206771edf" d="M 0 1.5 
C 0.397805 1.5 0.77937 1.341951 1.06066 1.06066 
C 1.341951 0.77937 1.5 0.397805 1.5 0 
C 1.5 -0.397805 1.341951 -0.77937 1.06066 -1.06066 
C 0.77937 -1.341951 0.397805 -1.5 0 -1.5 
C -0.397805 -1.5 -0.77937 -1.341951 -1.06066 -1.06066 
C -1.341951 -0.77937 -1.5 -0.397805 -1.5 0 
C -1.5 0.397805 -1.341951 0.77937 -1.06066 1.06066 
C -0.77937 1.341951 -0.397805 1.5 0 1.5 
z
" style="stroke: #4f6f8f"/>
    </defs>
    <g clip-path="url(#p0b2e867d63)">
     <use xlink:href="#m1206771edf" x="67.969091" y="36.841818" style="fill: #4f6f8f; stroke: #4f6f8f"/>
     <use xlink:href="#m1206771edf" x="81.933981" y="36.841818" style="fill: #4f6f8f; stroke: #4f6f8f"/>
     <use xlink:href="#m1206771edf" x="95.898871" y="36.841818" style="fill: #4f6f8f; stroke: #4f6f8f"/>
     <use xlink:href="#m1206771edf" x="109.863762" y="41.429498" style="fill: #4f6f8f; stroke: #4f6f8f"/>
     <use xlink:href="#m1206771edf" x="123.828652" y="43.570641" style="fill: #4f6f8f; stroke: #4f6f8f"/>
     <use xlink:href="#m1206771edf" x="137.793542" y="43.570641" style="fill: #4f6f8f; stroke: #4f6f8f"/>
     <use xlink:href="#m1206771edf" x="151.758433" y="48.039795" style="fill: #4f6f8f; stroke: #4f6f8f"/>
     <use xlink:href="#m1206771edf" x="165.723323" y="47.810411" style="fill: #4f6f8f; stroke: #4f6f8f"/>
     <use xlink:href="#m1206771edf" x="179.688213" y="51.17406" style="fill: #4f6f8f; stroke: #4f6f8f"/>
     <use xlink:href="#m1206771edf" x="193.653103" y="55.55472" style="fill: #4f6f8f; stroke: #4f6f8f"/>
     <use xlink:href="#m1206771edf" x="207.617994" y="57.123741" style="fill: #4f6f8f; stroke: #4f6f8f"/>
     <use xlink:href="#m1206771edf" x="221.582884" y="75.508283" style="fill: #4f6f8f; stroke: #4f6f8f"/>
     <use xlink:href="#m1206771edf" x="235.547774" y="74.745255" style="fill: #4f6f8f; stroke: #4f6f8f"/>
     <use xlink:href="#m1206771edf" x="249.512665" y="77.973173" style="fill: #4f6f8f; stroke: #4f6f8f"/>
     <use xlink:href="#m1206771edf" x="263.477555" y="77.098697" style="fill: #4f6f8f; stroke: #4f6f8f"/>
     <use xlink:href="#m1206771edf" x="277.442445" y="76.313576" style="fill: #4f6f8f; stroke: #4f6f8f"/>
     <use xlink:href="#m1206771edf" x="291.407335" y="78.832692" style="fill: #4f6f8f; stroke: #4f6f8f"/>
     <use xlink:href="#m1206771edf" x="305.372226" y="79.829911" style="fill: #4f6f8f; stroke: #4f6f8f"/>
     <use xlink:href="#m1206771edf" x="319.337116" y="78.595649" style="fill: #4f6f8f; stroke: #4f6f8f"/>
     <use xlink:href="#m1206771edf" x="333.302006" y="85.365115" style="fill: #4f6f8f; stroke: #4f6f8f"/>
     <use xlink:href="#m1206771edf" x="347.266897" y="84.642886" style="fill: #4f6f8f; stroke: #4f6f8f"/>
     <use xlink:href="#m1206771edf" x="361.231787" y="83.441228" style="fill: #4f6f8f; stroke: #4f6f8f"/>
     <use xlink:href="#m1206771edf" x="375.196677" y="84.028922" style="fill: #4f6f8f; stroke: #4f6f8f"/>
     <use xlink:href="#m1206771edf" x="389.161567" y="82.901056" style="fill: #4f6f8f; stroke: #4f6f8f"/>
     <use xlink:href="#m1206771edf" x="403.126458" y="84.370002" style="fill: #4f6f8f; stroke: #4f6f8f"/>
     <use xlink:href="#m1206771edf" x="417.091348" y="83.160463" style="fill: #4f6f8f; stroke: #4f6f8f"/>
     <use xlink:href="#m1206771edf" x="431.056238" y="81.856655" style="fill: #4f6f8f; stroke: #4f6f8f"/>
     <use xlink:href="#m1206771edf" x="445.021129" y="84.243149" style="fill: #4f6f8f; stroke: #4f6f8f"/>
     <use xlink:href="#m1206771edf" x="458.986019" y="83.390704" style="fill: #4f6f8f; stroke: #4f6f8f"/>
     <use xlink:href="#m1206771edf" x="472.950909" y="85.016506" style="fill: #4f6f8f; stroke: #4f6f8f"/>
    </g>
   </g>
   <g id="line2d_26">
    <path d="M 67.969091 73.543254 
L 81.933981 106.994 
L 95.898871 140.337251 
L 109.863762 144.429592 
L 123.828652 162.888072 
L 137.793542 174.541664 
L 151.758433 186.790768 
L 165.723323 198.028404 
L 179.688213 200.15762 
L 193.653103 201.490348 
L 207.617994 209.551775 
L 221.582884 209.551775 
L 235.547774 218.794199 
L 249.512665 212.187035 
L 263.477555 219.059397 
L 277.442445 225.446623 
L 291.407335 230.525975 
L 305.372226 231.888162 
L 319.337116 233.397433 
L 333.302006 233.578835 
L 347.266897 235.371142 
L 361.231787 232.880688 
L 375.196677 234.669883 
L 389.161567 236.070429 
L 403.126458 236.078182 
L 417.091348 236.078182 
L 431.056238 236.078182 
L 445.021129 236.078182 
L 458.986019 236.078182 
L 472.950909 236.078182 
" clip-path="url(#p0b2e867d63)" style="fill: none; stroke: #9a7f8f; stroke-width: 1.8; stroke-linecap: square"/>
    <defs>
     <path id="m940156363c" d="M 0 1.5 
C 0.397805 1.5 0.77937 1.341951 1.06066 1.06066 
C 1.341951 0.77937 1.5 0.397805 1.5 0 
C 1.5 -0.397805 1.341951 -0.77937 1.06066 -1.06066 
C 0.77937 -1.341951 0.397805 -1.5 0 -1.5 
C -0.397805 -1.5 -0.77937 -1.341951 -1.06066 -1.06066 
C -1.341951 -0.77937 -1.5 -0.397805 -1.5 0 
C -1.5 0.397805 -1.341951 0.77937 -1.06066 1.06066 
C -0.77937 1.341951 -0.397805 1.5 0 1.5 
z
" style="stroke: #9a7f8f"/>
    </defs>
    <g clip-path="url(#p0b2e867d63)">
     <use xlink:href="#m940156363c" x="67.969091" y="73.543254" style="fill: #9a7f8f; stroke: #9a7f8f"/>
     <use xlink:href="#m940156363c" x="81.933981" y="106.994" style="fill: #9a7f8f; stroke: #9a7f8f"/>
     <use xlink:href="#m940156363c" x="95.898871" y="140.337251" style="fill: #9a7f8f; stroke: #9a7f8f"/>
     <use xlink:href="#m940156363c" x="109.863762" y="144.429592" style="fill: #9a7f8f; stroke: #9a7f8f"/>
     <use xlink:href="#m940156363c" x="123.828652" y="162.888072" style="fill: #9a7f8f; stroke: #9a7f8f"/>
     <use xlink:href="#m940156363c" x="137.793542" y="174.541664" style="fill: #9a7f8f; stroke: #9a7f8f"/>
     <use xlink:href="#m940156363c" x="151.758433" y="186.790768" style="fill: #9a7f8f; stroke: #9a7f8f"/>
     <use xlink:href="#m940156363c" x="165.723323" y="198.028404" style="fill: #9a7f8f; stroke: #9a7f8f"/>
     <use xlink:href="#m940156363c" x="179.688213" y="200.15762" style="fill: #9a7f8f; stroke: #9a7f8f"/>
     <use xlink:href="#m940156363c" x="193.653103" y="201.490348" style="fill: #9a7f8f; stroke: #9a7f8f"/>
     <use xlink:href="#m940156363c" x="207.617994" y="209.551775" style="fill: #9a7f8f; stroke: #9a7f8f"/>
     <use xlink:href="#m940156363c" x="221.582884" y="209.551775" style="fill: #9a7f8f; stroke: #9a7f8f"/>
     <use xlink:href="#m940156363c" x="235.547774" y="218.794199" style="fill: #9a7f8f; stroke: #9a7f8f"/>
     <use xlink:href="#m940156363c" x="249.512665" y="212.187035" style="fill: #9a7f8f; stroke: #9a7f8f"/>
     <use xlink:href="#m940156363c" x="263.477555" y="219.059397" style="fill: #9a7f8f; stroke: #9a7f8f"/>
     <use xlink:href="#m940156363c" x="277.442445" y="225.446623" style="fill: #9a7f8f; stroke: #9a7f8f"/>
     <use xlink:href="#m940156363c" x="291.407335" y="230.525975" style="fill: #9a7f8f; stroke: #9a7f8f"/>
     <use xlink:href="#m940156363c" x="305.372226" y="231.888162" style="fill: #9a7f8f; stroke: #9a7f8f"/>
     <use xlink:href="#m940156363c" x="319.337116" y="233.397433" style="fill: #9a7f8f; stroke: #9a7f8f"/>
     <use xlink:href="#m940156363c" x="333.302006" y="233.578835" style="fill: #9a7f8f; stroke: #9a7f8f"/>
     <use xlink:href="#m940156363c" x="347.266897" y="235.371142" style="fill: #9a7f8f; stroke: #9a7f8f"/>
     <use xlink:href="#m940156363c" x="361.231787" y="232.880688" style="fill: #9a7f8f; stroke: #9a7f8f"/>
     <use xlink:href="#m940156363c" x="375.196677" y="234.669883" style="fill: #9a7f8f; stroke: #9a7f8f"/>
     <use xlink:href="#m940156363c" x="389.161567" y="236.070429" style="fill: #9a7f8f; stroke: #9a7f8f"/>
     <use xlink:href="#m940156363c" x="403.126458" y="236.078182" style="fill: #9a7f8f; stroke: #9a7f8f"/>
     <use xlink:href="#m940156363c" x="417.091348" y="236.078182" style="fill: #9a7f8f; stroke: #9a7f8f"/>
     <use xlink:href="#m940156363c" x="431.056238" y="236.078182" style="fill: #9a7f8f; stroke: #9a7f8f"/>
     <use xlink:href="#m940156363c" x="445.021129" y="236.078182" style="fill: #9a7f8f; stroke: #9a7f8f"/>
     <use xlink:href="#m940156363c" x="458.986019" y="236.078182" style="fill: #9a7f8f; stroke: #9a7f8f"/>
     <use xlink:href="#m940156363c" x="472.950909" y="236.078182" style="fill: #9a7f8f; stroke: #9a7f8f"/>
    </g>
   </g>
   <g id="patch_3">
    <path d="M 47.72 246.04 
L 47.72 26.88 
" style="fill: none; stroke: #475569; stroke-width: 0.8; stroke-linejoin: miter; stroke-linecap: square"/>
   </g>
   <g id="patch_4">
    <path d="M 493.2 246.04 
L 493.2 26.88 
" style="fill: none; stroke: #475569; stroke-width: 0.8; stroke-linejoin: miter; stroke-linecap: square"/>
   </g>
   <g id="patch_5">
    <path d="M 47.72 246.04 
L 493.2 246.04 
" style="fill: none; stroke: #475569; stroke-width: 0.8; stroke-linejoin: miter; stroke-linecap: square"/>
   </g>
   <g id="patch_6">
    <path d="M 47.72 26.88 
L 493.2 26.88 
" style="fill: none; stroke: #475569; stroke-width: 0.8; stroke-linejoin: miter; stroke-linecap: square"/>
   </g>
   <g id="text_15">
    <text style="font-size: 12px; font-family: 'DejaVu Sans'; text-anchor: middle; fill: #111827" x="270.46" y="20.88" transform="rotate(-0 270.46 20.88)">Reputation evolution example</text>
   </g>
   <g id="legend_1">
    <g id="line2d_27">
     <path d="M 408.832812 39.978438 
L 418.832812 39.978438 
L 428.832812 39.978438 
" style="fill: none; stroke: #4f6f8f; stroke-width: 1.8; stroke-linecap: square"/>
     <g>
      <use xlink:href="#m1206771edf" x="418.832812" y="39.978438" style="fill: #4f6f8f; stroke: #4f6f8f"/>
     </g>
    </g>
    <g id="text_16">
     <text style="font-size: 10px; font-family: 'DejaVu Sans'; text-anchor: start" x="436.832812" y="43.478438" transform="rotate(-0 436.832812 43.478438)">benign</text>
    </g>
    <g id="line2d_28">
     <path d="M 408.832812 54.656563 
L 418.832812 54.656563 
L 428.832812 54.656563 
" style="fill: none; stroke: #9a7f8f; stroke-width: 1.8; stroke-linecap: square"/>
     <g>
      <use xlink:href="#m940156363c" x="418.832812" y="54.656563" style="fill: #9a7f8f; stroke: #9a7f8f"/>
     </g>
    </g>
    <g id="text_17">
     <text style="font-size: 10px; font-family: 'DejaVu Sans'; text-anchor: start" x="436.832812" y="58.156563" transform="rotate(-0 436.832812 58.156563)">malicious</text>
    </g>
   </g>
  </g>
 </g>
 <defs>
  <clipPath id="p0b2e867d63">
   <rect x="47.72" y="26.88" width="445.48" height="219.16"/>
  </clipPath>
 </defs>
</svg>
